HIERARCHY
ROOT Hips
{
	OFFSET -3.958830 18.904000 13.208200
	CHANNELS 6 Xposition Yposition Zposition Zrotation Yrotation Xrotation 
	JOINT LHipJoint
	{
		OFFSET 0.000000 0.000000 0.000000
		CHANNELS 3 Zrotation Yrotation Xrotation
		JOINT LeftUpLeg
		{
			OFFSET 1.800000 -1.400000 0.085000
			CHANNELS 3 Zrotation Yrotation Xrotation
			JOINT LeftLeg
			{
				OFFSET 2.215000 -6.000000 0.000000
				CHANNELS 3 Zrotation Yrotation Xrotation
				JOINT LeftFoot
				{
					OFFSET 2.500000 -6.900000 0.000000
					CHANNELS 3 Zrotation Yrotation Xrotation
					JOINT LeftToeBase
					{
						OFFSET 0.200000 -0.500000 1.950000
						CHANNELS 3 Zrotation Yrotation Xrotation
						End Site
						{
							OFFSET 0.000000 0.000000 0.000000
						}
					}
				}
			}
		}
	}
	JOINT RHipJoint
	{
		OFFSET 0.000000 0.000000 0.000000
		CHANNELS 3 Zrotation Yrotation Xrotation
		JOINT RightUpLeg
		{
			OFFSET -1.800000 -1.400000 0.085000
			CHANNELS 3 Zrotation Yrotation Xrotation
			JOINT RightLeg
			{
				OFFSET -2.215000 -6.000000 0.000000
				CHANNELS 3 Zrotation Yrotation Xrotation
				JOINT RightFoot
				{
					OFFSET -2.500000 -6.900000 0.000000
					CHANNELS 3 Zrotation Yrotation Xrotation
					JOINT RightToeBase
					{
						OFFSET -0.200000 -0.500000 1.950000
						CHANNELS 3 Zrotation Yrotation Xrotation
						End Site
						{
							OFFSET 0.000000 0.000000 0.000000
						}
					}
				}
			}
		}
	}
	JOINT LowerBack
	{
		OFFSET 0.000000 0.000000 0.000000
		CHANNELS 3 Zrotation Yrotation Xrotation
		JOINT Spine
		{
			OFFSET -0.087000 1.940000 -0.288900
			CHANNELS 3 Zrotation Yrotation Xrotation
			JOINT Spine1
			{
				OFFSET 0.000000 1.950000 0.060000
				CHANNELS 3 Zrotation Yrotation Xrotation
				JOINT Neck
				{
					OFFSET 0.000000 0.000000 0.000000
					CHANNELS 3 Zrotation Yrotation Xrotation
					JOINT Neck1
					{
						OFFSET 0.000000 1.600000 0.340000
						CHANNELS 3 Zrotation Yrotation Xrotation
						JOINT Head
						{
							OFFSET 0.000000 1.667000 -0.240000
							CHANNELS 3 Zrotation Yrotation Xrotation
							End Site
							{
								OFFSET 0.000000 0.000000 0.000000
							}
						}
					}
				}
				JOINT LeftShoulder
				{
					OFFSET 0.000000 0.000000 0.000000
					CHANNELS 3 Zrotation Yrotation Xrotation
					JOINT LeftArm
					{
						OFFSET 2.700000 1.550000 -0.730000
						CHANNELS 3 Zrotation Yrotation Xrotation
						JOINT LeftForeArm
						{
							OFFSET 5.450000 0.000000 0.000000
							CHANNELS 3 Zrotation Yrotation Xrotation
							JOINT LeftHand
							{
								OFFSET 3.450000 0.000000 0.000000
								CHANNELS 3 Zrotation Yrotation Xrotation
								JOINT LeftHandIndex1
								{
									OFFSET 0.750000 0.000000 0.000000
									CHANNELS 3 Zrotation Yrotation Xrotation
									End Site
									{
										OFFSET 0.000000 0.000000 0.000000
									}
								}
							}
						}
					}
				}
				JOINT RightShoulder
				{
					OFFSET 0.000000 0.000000 0.000000
					CHANNELS 3 Zrotation Yrotation Xrotation
					JOINT RightArm
					{
						OFFSET -2.700000 1.550000 -0.730000
						CHANNELS 3 Zrotation Yrotation Xrotation
						JOINT RightForeArm
						{
							OFFSET -5.450000 0.000000 0.000000
							CHANNELS 3 Zrotation Yrotation Xrotation
							JOINT RightHand
							{
								OFFSET -3.450000 0.000000 0.000000
								CHANNELS 3 Zrotation Yrotation Xrotation
								JOINT RightHandIndex1
								{
									OFFSET -0.750000 0.000000 0.000000
									CHANNELS 3 Zrotation Yrotation Xrotation
									End Site
									{
										OFFSET 0.000000 0.000000 0.000000
									}
								}
							}
						}
					}
				}
			}
		}
	}
}
MOTION
Frames: 13
Frame Time: 0.016667
-0.346400 17.485010 -3.683360 -2.988881 -6.409317 7.160094 -15.444537 11.408124 5.427193 5.359777 -7.650661 -48.084803 -9.763814 10.942418 36.634906 -0.471602 7.343015 1.984950 0.621130 0.180810 0.434610 18.239718 -10.651001 1.951423 -5.826819 0.544531 1.647547 6.171417 -8.365814 26.619258 -0.713892 -5.855404 2.658889 0.236760 0.369810 0.199930 -3.120718 -0.737395 -8.018879 3.975872 6.867265 14.144195 -0.193296 8.240395 6.301770 2.118492 -1.784228 -7.688983 -4.315484 -0.060928 31.182944 -3.351910 -1.102020 -12.085250 -24.579661 -5.925653 2.412850 -35.831057 3.483685 -5.969182 -48.963276 -35.626171 11.661321 -3.692913 3.189506 0.678970 0.207310 -0.135650 0.323810 20.272290 11.104486 4.878108 28.531148 7.262617 -2.092087 99.543306 52.310521 47.527005 1.958900 -1.930914 -0.358530 0.385180 -0.063410 -0.303320 
-0.360930 17.460810 -3.714140 -2.673389 -5.931541 7.024523 -15.476980 11.475677 5.406344 4.379211 -7.820390 -48.166189 -8.868391 10.201781 35.608100 -0.563532 6.964911 2.113968 0.612690 0.162470 0.449130 18.194708 -10.627706 2.000285 -5.630848 0.439236 2.133986 6.371209 -8.354219 25.991320 -0.723263 -5.811323 2.675341 0.227150 0.354670 0.195170 -3.006539 -0.872228 -8.048703 3.130238 7.121764 14.987868 0.054797 8.538198 5.815097 2.229772 -1.563687 -7.762225 -4.003856 -0.484160 31.404565 -3.697750 -1.110880 -13.151180 -24.996320 -6.360329 2.394012 -35.301449 3.264381 -5.853368 -49.195109 -35.185573 11.525576 -3.689888 3.151093 0.717810 0.192960 -0.120300 0.307540 20.511192 11.622434 4.990235 28.026244 7.411865 -2.312260 97.001943 52.165264 45.527984 1.951401 -1.891229 -0.375420 0.399840 -0.051320 -0.324220 
-0.384160 17.399560 -3.760420 -2.295812 -4.739211 7.029712 -15.510075 11.504593 5.417964 2.579899 -8.230911 -48.768272 -7.233339 8.945531 33.831923 -0.721706 6.339294 2.350812 0.562530 0.086170 0.449510 18.153641 -10.594802 2.089559 -4.903465 0.158679 3.034724 6.363216 -8.196998 24.807150 -0.716281 -5.710057 2.727597 0.197060 0.364260 0.162210 -2.903801 -0.972123 -8.111527 2.274535 7.518664 16.171771 0.086652 9.054252 4.879832 2.396621 -1.223820 -7.993664 -3.467874 -1.198722 31.603723 -3.702470 -1.366860 -14.330200 -25.512413 -7.096381 2.471847 -34.874103 3.144374 -5.836502 -49.345214 -35.012670 11.426840 -3.699411 3.056293 0.780260 0.179690 -0.125950 0.276630 20.735260 12.460480 5.257926 27.688585 7.441476 -2.768272 90.630526 51.362069 40.444047 1.923544 -1.810037 -0.436820 0.453760 -0.010730 -0.360070 
-0.396800 17.322850 -3.808190 -2.005816 -3.589218 7.075574 -15.519080 11.539244 5.393983 0.167433 -8.517460 -49.166795 -5.061132 7.422926 31.199663 -0.937910 5.561822 2.661961 0.499300 -0.028580 0.456550 18.132645 -10.588776 2.194872 -3.985401 -0.038805 3.765554 6.179795 -8.005322 23.910177 -0.711943 -5.614974 2.763219 0.162580 0.396890 0.138130 -2.866553 -1.009241 -8.153847 2.121955 8.028101 17.339568 0.057435 9.765493 4.128214 2.520805 -1.274603 -8.124727 -3.609394 -1.893609 31.792011 -3.769400 -1.938390 -15.799640 -25.819319 -7.448701 2.481607 -35.171203 3.101609 -5.957417 -49.659686 -35.613914 11.632113 -3.728217 2.931561 0.870960 0.169350 -0.133570 0.243250 20.759626 13.241487 5.377284 27.047467 7.787165 -3.246261 83.213222 50.091750 35.021341 1.874183 -1.698865 -0.528940 0.535140 0.049920 -0.405640 
-0.414480 17.235190 -3.847730 -1.665700 -2.325783 7.022246 -15.532904 11.562195 5.376730 -2.330120 -8.765117 -49.432815 -2.826010 6.086781 28.648274 -1.085644 4.812352 2.939253 0.451800 -0.107770 0.449460 18.110379 -10.569137 2.302815 -3.035812 -0.349746 4.708610 5.965414 -7.811461 22.861124 -0.710559 -5.540162 2.782502 0.124650 0.395780 0.130040 -2.824347 -1.049287 -8.204283 1.865364 8.543866 18.486486 0.214108 10.435809 3.407272 2.559201 -1.506041 -8.320780 -4.083540 -2.310006 32.254272 -3.466440 -2.451920 -16.761480 -25.940325 -7.548914 2.554348 -35.614423 3.391889 -6.282137 -50.307881 -37.030561 12.323987 -3.735535 2.889685 0.922100 0.149570 -0.137270 0.203620 20.804533 13.974183 5.547564 26.861124 7.868231 -3.873984 74.658825 48.227548 29.145866 1.834946 -1.619668 -0.564080 0.552140 0.099670 -0.432480 
-0.425190 17.143590 -3.877850 -1.178206 -0.723900 7.108516 -15.546723 11.477820 5.446300 -5.351442 -9.466322 -49.959074 0.013523 4.794292 26.964209 -1.168636 4.186955 3.187337 0.425070 -0.142490 0.432980 18.109497 -10.524828 2.392149 -2.109030 -0.840027 5.731949 5.576040 -7.521551 21.127969 -0.712920 -5.424735 2.840352 0.098820 0.403780 0.123630 -2.820381 -1.005578 -8.279889 1.792222 8.993985 19.282824 0.091472 10.999064 2.849635 2.568734 -1.496423 -8.498668 -4.197095 -2.891070 32.866157 -3.083110 -3.039350 -17.398740 -26.092639 -7.903090 2.601809 -35.770504 3.194383 -6.441376 -50.135576 -37.785351 12.552660 -3.736726 2.848787 0.948120 0.140790 -0.132870 0.196600 20.919620 14.626396 5.758917 27.469046 7.762807 -4.532112 65.255115 45.430146 22.939187 1.793677 -1.536862 -0.576670 0.573280 0.120020 -0.435000 
-0.421460 17.061710 -3.902120 -1.141029 1.006975 6.830099 -15.541358 11.408950 5.540489 -7.993745 -10.064988 -50.331465 2.691353 3.817301 26.450688 -1.205831 3.852214 3.312186 0.398030 -0.172140 0.409350 18.121145 -10.459454 2.507253 -1.124865 -1.259802 6.857185 5.718013 -7.473895 19.988479 -0.738727 -5.400271 2.846562 0.076240 0.397250 0.111670 -2.868805 -1.006235 -8.435627 2.809448 9.150613 20.804908 -0.315177 11.561763 1.825897 2.485163 -1.741391 -8.568695 -4.952494 -3.364671 34.044402 -2.118280 -3.964570 -18.123500 -27.269590 -8.304728 2.432872 -35.718910 2.890150 -6.461093 -49.063881 -36.618283 11.616487 -3.720804 2.809654 0.976390 0.112980 -0.123620 0.181640 22.137432 15.417008 5.999340 27.543220 7.347945 -5.128890 55.599574 41.121920 16.854262 1.767604 -1.438498 -0.584450 0.585590 0.144330 -0.432980 
-0.417730 16.979780 -3.903450 -1.227109 2.900270 6.595902 -15.534197 11.280833 5.673344 -10.170506 -10.773741 -50.896901 4.914102 3.108760 26.990325 -1.223437 3.788187 3.328552 0.378550 -0.214900 0.396400 18.146648 -10.368535 2.621930 -0.075743 -1.769585 8.159617 5.842837 -7.406284 18.517819 -0.759769 -5.390618 2.840946 0.055480 0.384880 0.101450 -2.942052 -0.966038 -8.605258 4.045519 9.158871 22.030872 -0.702552 12.009573 0.828571 2.370783 -2.072912 -8.652164 -5.804078 -3.641959 35.108983 -1.203690 -4.821670 -18.197750 -28.509145 -8.395097 2.333112 -35.794061 3.432617 -6.782323 -48.251943 -36.658244 11.242068 -3.697569 2.805243 1.007020 0.087010 -0.131770 0.161150 23.484036 15.940623 6.183176 28.061150 7.040363 -5.327604 46.104256 35.462312 11.381555 1.745825 -1.339095 -0.598700 0.578290 0.170780 -0.446560 
-0.415350 16.906460 -3.891870 -1.466090 5.355134 6.336545 -15.542401 11.110567 5.869613 -11.865983 -11.757288 -51.760944 6.969483 2.469677 28.764049 -1.151188 3.897959 3.266340 0.414050 -0.166350 0.399780 18.173189 -10.225199 2.718454 1.358061 -2.382773 9.228213 5.854413 -7.318918 17.435177 -0.811521 -5.380419 2.835123 0.060480 0.330000 0.100000 -2.998650 -0.972349 -8.795037 5.273211 8.756173 23.164523 -0.868138 12.020109 -0.008064 2.303559 -2.392475 -8.793884 -6.646123 -3.939473 36.207376 -0.762670 -5.460480 -18.491280 -29.378480 -8.350933 2.293430 -36.240695 4.072309 -7.276294 -47.219047 -36.786487 10.851978 -3.627972 2.848796 1.011500 0.044240 -0.102720 0.171580 24.419923 16.265450 6.333500 29.307370 6.964170 -5.242912 36.832715 29.694814 7.065666 1.760763 -1.262073 -0.558100 0.536740 0.139050 -0.436600 
-0.411450 16.858110 -3.877320 -1.226354 7.551901 6.100558 -15.578539 11.005699 6.067867 -13.483228 -12.794448 -52.130086 8.614573 1.902976 30.055917 -1.092413 3.990363 3.235266 0.407170 -0.158930 0.385590 18.163932 -10.062963 2.762761 1.967529 -2.770902 10.108016 6.380371 -7.396407 16.592083 -0.840860 -5.365643 2.858313 0.049290 0.310540 0.052520 -2.961948 -1.147812 -8.963865 5.619946 8.460620 24.631161 -0.697782 12.054346 -1.090968 2.124721 -3.143073 -9.087235 -8.304036 -3.547828 37.375193 0.680340 -5.954150 -19.453130 -30.017684 -8.179604 2.184747 -37.444468 4.548805 -7.932009 -45.553895 -37.093642 10.284363 -3.571505 2.803118 1.032960 -0.001030 -0.089710 0.174900 25.493490 16.825655 6.733124 30.498527 6.750890 -4.921281 28.328816 23.600732 3.927045 1.795830 -1.109351 -0.563320 0.562150 0.127870 -0.428140 
-0.408350 16.828940 -3.832060 -0.664221 9.223687 6.114247 -15.644614 10.927723 6.233174 -14.236032 -13.693705 -52.556031 9.087738 1.775623 31.885852 -1.042316 4.288280 3.124064 0.375120 -0.208360 0.354540 18.122778 -9.914185 2.757529 1.942200 -2.888837 10.747387 7.228847 -7.595798 16.066398 -0.848859 -5.414770 2.838689 0.022320 0.325910 0.050290 -2.823431 -1.350388 -9.066147 4.809177 8.730648 25.377972 0.249119 12.281353 -2.135146 1.776385 -3.703501 -9.187231 -9.489614 -3.315797 37.938797 1.821270 -6.600460 -19.295570 -31.010359 -7.780203 1.940880 -38.203909 5.254602 -8.383449 -44.542516 -36.999076 9.782011 -3.570133 2.791313 1.045840 -0.009990 -0.102810 0.165900 27.395430 17.067085 7.085195 31.528734 6.384250 -4.223561 20.269209 16.856437 1.731972 1.831163 -0.976216 -0.574520 0.564700 0.157650 -0.425210 
-0.397760 16.827590 -3.759040 -0.237184 10.253267 5.887560 -15.680604 10.950598 6.251995 -14.213756 -13.893150 -52.270223 8.479626 2.041871 33.159194 -1.000752 4.483167 3.039481 0.362700 -0.214840 0.322700 18.081723 -9.863428 2.777155 1.695348 -2.944274 11.518120 7.854813 -7.798590 15.860832 -0.877234 -5.489865 2.815339 0.008360 0.316310 0.037510 -2.723783 -1.478616 -9.105860 4.083099 9.039745 25.968922 1.083297 12.558742 -3.073340 1.472403 -4.101599 -9.211496 -10.400185 -2.892322 39.050778 3.175930 -6.913440 -19.878990 -31.677557 -6.916808 1.659004 -39.073086 6.318197 -8.980410 -43.222362 -36.898962 9.205882 -3.538127 2.781767 1.066380 -0.036730 -0.096410 0.164430 28.837881 16.792564 7.240213 33.028078 5.913774 -3.737899 14.025359 11.983441 0.736423 1.881034 -0.881997 -0.572850 0.562200 0.169040 -0.418910 
-0.381010 16.849180 -3.675410 0.344063 11.432633 5.576592 -15.723021 11.039650 6.232994 -14.233920 -14.000374 -51.198266 7.387643 2.402913 33.637976 -0.973897 4.555372 3.009795 0.357640 -0.214300 0.328380 18.026039 -9.820388 2.784882 1.475828 -2.964758 12.150090 8.065618 -7.966474 16.167672 -0.912821 -5.534822 2.805693 -0.007380 0.300980 0.030790 -2.595446 -1.701632 -9.117317 3.152809 9.063305 26.481522 2.060083 12.443665 -3.901316 1.266206 -4.447556 -9.073816 -11.346083 -2.356422 40.621265 3.709560 -6.801540 -21.189570 -32.089237 -5.865456 1.323007 -40.346440 7.190255 -9.584759 -40.605353 -35.775325 7.870325 -3.519962 2.714004 1.095920 -0.063970 -0.065510 0.157050 29.819185 16.238423 7.060555 34.609009 5.783798 -3.295634 9.948992 7.768694 0.359046 1.950336 -0.782630 -0.568300 0.580840 0.170430 -0.417420 
